<svg width="788" height="788" viewBox="0 0 788 788" fill="none" xmlns="http://www.w3.org/2000/svg">
<path d="M391.974 58.9045C389.881 59.5442 386.624 61.2887 385.345 62.3936C383.019 64.487 382.496 66.5223 382.03 76.4081C381.798 81.6999 381.449 86.4101 381.216 86.9335C380.984 87.515 378.599 88.3291 373.831 89.434C355.571 93.6209 341.964 101.53 333.706 112.636C325.74 123.394 322.193 134.56 322.193 148.807C322.193 163.403 325.74 175.091 332.951 184.57C341.208 195.27 352.082 202.132 371.97 208.935L381.798 212.366L381.972 229.637L382.089 246.85L398.545 264.703C407.559 274.53 417.968 285.695 421.748 289.533L428.493 296.511L431.052 295.116C434.367 293.255 454.196 280.927 458.325 278.135C461.174 276.216 461.989 275.228 464.257 270.808C470.072 259.469 471.932 250.804 471.467 237.604C471.118 227.602 469.839 221.729 466.466 214.46C463.21 207.598 458.965 201.666 453.266 196.2C444.543 187.826 437.507 184.221 417.735 177.882L407.094 174.51V150.202C407.094 135.839 407.326 125.779 407.617 125.546C408.431 125.081 414.77 130.547 417.212 133.862C419.247 136.711 420.41 138.979 423.667 146.888C428.028 157.588 434.483 161.891 444.892 161.135C451.056 160.67 454.313 159.39 458.209 155.727C470.479 144.387 465.827 123.511 446.927 105.193C438.495 97.0518 429.424 92.5742 415.119 89.434C410.059 88.3291 407.617 87.515 407.326 86.9335C407.152 86.4101 406.803 81.6999 406.57 76.4081C405.989 63.8474 405.175 62.2773 398.022 59.5442C394.591 58.2648 394.184 58.2648 391.974 58.9045ZM381.681 131.71C382.263 139.561 381.74 165.38 381.042 166.078C380.402 166.717 374.122 162.647 370.458 159.216C366.504 155.494 365.515 152.703 365.515 145.027C365.515 137.118 366.155 135.374 370.633 131.303C374.354 127.93 379.588 124.557 380.635 124.848C380.984 124.965 381.449 128.047 381.681 131.71ZM414.014 223.241C421.69 227.195 424.597 229.579 426.691 233.882C428.028 236.674 428.319 238.069 428.493 243.012C428.668 247.839 428.493 249.467 427.447 252.607C425.004 259.992 421.108 264.237 413.2 268.192C407.268 271.157 407.443 271.274 407.035 264.237C406.221 250.921 406.57 220.042 407.501 220.042C407.675 220.042 410.583 221.496 414.014 223.241Z" fill="#4F6FCF"/>
<path d="M512.348 177.068C511.592 177.417 510.429 178.115 509.847 178.638C505.718 182.36 507.347 185.733 528.281 217.076C535.027 227.195 541.307 237.022 542.238 238.883L543.866 242.314L542.528 243.361C538.807 246.152 498.624 270.576 462.047 292.208C433.378 309.247 427.621 312.503 426.574 312.503C425.295 312.503 412.792 299.768 385.636 270.925C340.452 222.833 338.824 221.205 335.393 221.205C332.834 221.205 329.81 223.706 313.179 239.581C295.036 256.968 149.773 401.765 137.736 414.501C127.327 425.549 126.571 426.538 127.094 428.224C127.734 430.26 130.234 432.76 132.386 433.458C134.305 434.098 134.712 433.981 139.771 431.074C142.737 429.387 149.308 425.375 154.425 422.118C168.673 413.047 171.813 410.953 236.419 368.27C283.987 336.81 305.328 322.854 309.399 320.586L311.9 319.19L316.842 324.424C319.576 327.273 335.393 344.312 352.024 362.222C407.152 421.537 411.455 425.956 415.06 426.829C417.037 427.352 421.457 425.142 428.61 420.199C434.018 416.42 466.175 393.624 505.951 365.363C574.395 316.69 588.235 307.211 589.747 308.2C589.98 308.316 593.236 312.91 597.016 318.434C614.985 344.661 621.44 353.674 623.766 355.477C626.383 357.512 630.221 356.814 632.547 353.791C634.349 351.523 642.084 313.492 659.471 221.903L661.797 209.459L660.576 207.772C659.936 206.842 658.599 205.679 657.668 205.155C654.179 203.411 642.374 200.794 599.284 192.478C548.402 182.593 531.596 179.452 515.255 176.719C514.441 176.603 513.162 176.777 512.348 177.068Z" fill="#FFAD32"/>
<path d="M604.287 373.298C592.999 373.517 591.098 373.648 589.716 374.349C588.852 374.788 587.873 375.489 587.643 375.883C586.606 377.373 586.376 390.478 586.203 462.002L586.03 535.542L587.528 536.594C590.926 539.005 591.559 539.048 619.318 538.873C647.942 538.698 648.345 538.654 649.842 535.849C650.418 534.71 650.648 528.618 650.936 508.721C651.339 475.632 650.936 378.469 650.418 376.935C649.842 375.314 647.711 374.262 644.025 373.78C639.648 373.21 619.837 372.947 604.287 373.298Z" fill="#4F6FCF"/>
<path d="M225.322 402.942C223.934 403.109 221.909 403.775 220.809 404.399L218.784 405.482V470.127V534.772L222.024 536.854L225.265 538.935L248.178 538.727C276.009 538.519 280.291 538.269 282.316 536.812C283.589 535.896 283.762 535.313 284.225 531.067C284.457 528.445 284.688 499.265 284.688 466.131L284.746 405.981L282.779 404.608C281.506 403.692 279.886 403.109 278.265 402.859C275.025 402.401 228.505 402.485 225.322 402.942Z" fill="#4F6FCF"/>
<path d="M319.935 409.035C315.149 409.321 313.339 409.813 312.23 411.245C311.179 412.596 310.829 428.843 310.712 484.994L310.596 534.556L313.748 536.725L316.958 538.935L342.818 538.689C357.061 538.526 369.553 538.239 370.662 538.034C371.712 537.789 373.464 537.134 374.573 536.561L376.557 535.497V477.095C376.557 443.577 376.324 417.138 375.974 415.051C375.215 409.935 374.514 409.485 366.809 409.076C359.921 408.708 326.065 408.708 319.935 409.035Z" fill="#4F6FCF"/>
<path d="M501.802 409.048C495.49 409.58 494.847 410.277 493.912 416.871C493.619 419.042 493.327 445.626 493.327 477.616V534.429L496.6 536.682L499.815 538.935H515.42C537.572 538.894 552.71 538.361 555.398 537.583C558.964 536.518 559.256 535.74 559.607 525.213C560.191 509.771 560.366 463.444 559.957 437.229C559.607 413.431 559.548 412.734 558.379 411.628C557.736 411.014 556.333 410.154 555.223 409.703C553.353 408.925 552.067 408.884 529.272 408.802C516.122 408.761 503.731 408.884 501.802 409.048Z" fill="#4F6FCF"/>
<path d="M404.248 448.027L401.516 449.786L401.632 484.559C401.69 503.722 401.864 522.923 402.097 527.246C402.504 536.077 402.911 537.066 406.283 537.872C407.62 538.202 416.34 538.422 434.884 538.642L461.567 538.935L464.939 537.066L468.369 535.197V493.06V450.885L467.148 449.31C464.881 446.305 466.45 446.452 434.942 446.342L407.038 446.232L404.248 448.027Z" fill="#4F6FCF"/>
<path d="M138.724 468.767L131.741 468.997L129.804 470.146C128.102 471.197 127.868 471.591 127.457 474.219C126.811 478.029 126.811 529.462 127.457 533.272C128.278 538.33 129.452 538.593 151.575 538.889C159.321 538.987 170.411 538.921 176.221 538.757C188.603 538.429 191.067 538.035 192.769 536.162C193.767 535.013 193.825 533.305 193.825 503.91C193.825 470.081 193.943 471.066 190.48 469.719C189.013 469.095 187.488 468.964 181.267 468.734C172.583 468.438 148.699 468.438 138.724 468.767Z" fill="#4F6FCF"/>
<path d="M145.04 564.85H171.766C180.97 564.85 187.931 567.033 192.651 571.398C197.489 575.764 199.908 581.841 199.908 589.629V600.248C199.908 610.278 195.719 616.708 187.341 619.54C196.899 622.136 201.678 628.685 201.678 639.186V655.116C201.678 663.021 199.318 669.157 194.598 673.523C189.878 677.771 182.857 679.895 173.536 679.895H145.04V564.85ZM189.288 655.116V639.186C189.288 635.41 187.872 631.989 185.04 628.921C182.208 625.735 178.374 624.142 173.536 624.142H157.43V669.275H173.536C178.492 669.275 182.326 667.918 185.04 665.204C187.872 662.372 189.288 659.009 189.288 655.116ZM187.518 600.248V589.629C187.518 585.853 186.102 582.549 183.27 579.717C180.557 576.885 176.722 575.469 171.766 575.469H157.43V615.292H171.766C176.722 615.292 180.557 613.758 183.27 610.691C186.102 607.623 187.518 604.142 187.518 600.248ZM277.764 657.771V648.036H290.153V657.771C290.153 665.676 287.734 671.812 282.896 676.178C278.058 680.426 270.802 682.549 261.126 682.549C251.451 682.549 244.135 680.426 239.179 676.178C234.223 671.812 231.746 665.676 231.746 657.771V586.974C231.746 579.068 234.164 572.991 239.002 568.743C243.84 564.378 251.097 562.195 260.772 562.195C270.448 562.195 277.764 564.378 282.719 568.743C287.675 572.991 290.153 579.068 290.153 586.974V625.912H244.135V657.771C244.135 667.21 249.74 671.93 260.949 671.93C272.159 671.93 277.764 667.21 277.764 657.771ZM244.135 586.974V615.292H277.764V586.974C277.764 577.534 272.159 572.814 260.949 572.814C249.74 572.814 244.135 577.534 244.135 586.974ZM376.077 679.895H363.688V564.85H390.414C399.617 564.85 406.579 567.033 411.299 571.398C416.136 575.764 418.555 581.841 418.555 589.629V614.407C418.555 626.443 413.363 634.113 402.98 637.416L424.75 679.895H411.122L390.414 639.186H376.077V679.895ZM406.166 614.407V589.629C406.166 585.145 404.809 581.664 402.095 579.186C399.381 576.708 395.487 575.469 390.414 575.469H376.077V628.567H390.414C400.915 628.567 406.166 623.847 406.166 614.407ZM461.981 679.895H449.591V564.85H461.981V679.895ZM540.659 657.771V648.036H553.049V657.771C553.049 665.676 550.63 671.812 545.792 676.178C540.954 680.426 533.697 682.549 524.022 682.549C514.346 682.549 507.031 680.426 502.075 676.178C497.119 671.812 494.641 665.676 494.641 657.771V586.974C494.641 579.068 497.06 572.991 501.898 568.743C506.736 564.378 513.992 562.195 523.668 562.195C533.343 562.195 540.659 564.378 545.615 568.743C550.571 572.991 553.049 579.068 553.049 586.974V603.788H540.659V586.974C540.659 577.534 535.054 572.814 523.845 572.814C512.635 572.814 507.031 577.534 507.031 586.974V657.771C507.031 667.21 512.635 671.93 523.845 671.93C535.054 671.93 540.659 667.21 540.659 657.771ZM596.453 679.895H584.064V564.85H596.453V616.177H631.321V564.85H643.71V679.895H631.321V626.797H596.453V679.895Z" fill="black"/>
</svg>
